<svg width="42" height="45" viewBox="0 0 42 45" fill="none" xmlns="http://www.w3.org/2000/svg">
<path d="M4.5 14.024H37.5L36.75 22.4384H5.25L4.5 14.024ZM35.5003 36.4623H6.49969L5.46844 24.9136L7.02094 42.3051C7.08349 43.0062 7.42557 43.6597 7.97934 44.136C8.53311 44.6124 9.25813 44.8767 10.0106 44.8767H31.9894C32.7419 44.8767 33.4669 44.6124 34.0207 44.136C34.5744 43.6597 34.9165 43.0062 34.9791 42.3051L36.5297 24.9136L35.5003 36.4623Z" fill="#ECF0F1"/>
<path d="M6.49969 36.4623H35.5003L36.75 22.4384H5.25L6.49969 36.4623ZM40.5 5.60959H39L36.8288 1.55053C36.5796 1.08464 36.1966 0.69282 35.7227 0.418963C35.2488 0.145107 34.7027 3.3981e-05 34.1456 0L7.85437 0C7.29726 3.3981e-05 6.75116 0.145107 6.27726 0.418963C5.80336 0.69282 5.42039 1.08464 5.17125 1.55053L3 5.60959H1.5C1.10218 5.60959 0.720644 5.75734 0.43934 6.02034C0.158035 6.28334 0 6.64005 0 7.01199L0 9.81678C0 10.1887 0.158035 10.5454 0.43934 10.8084C0.720644 11.0714 1.10218 11.2192 1.5 11.2192H40.5C40.8978 11.2192 41.2794 11.0714 41.5607 10.8084C41.842 10.5454 42 10.1887 42 9.81678V7.01199C42 6.64005 41.842 6.28334 41.5607 6.02034C41.2794 5.75734 40.8978 5.60959 40.5 5.60959Z" fill="#34495E"/>
</svg>
